<svg width="427" height="164" viewBox="0 0 427 164" xmlns="http://www.w3.org/2000/svg" xmlns:sketch="http://www.bohemiancoding.com/sketch/ns"><title>keytar bear</title><g sketch:type="MSPage" fill="none"><path d="M243.484 90.644c6.526-14.041.471-30.731-13.524-37.279-12.153-5.686-26.298-1.853-34.084 8.45-7.786-10.303-21.93-14.136-34.084-8.45-13.995 6.547-20.05 23.238-13.524 37.279 6.526 14.041 47.518 38.463 47.519 38.463 0 0 41.17-24.422 47.696-38.463z" fill="#FC4349" sketch:type="MSShapeGroup"/><g id="Group" sketch:type="MSLayerGroup" transform="rotate(-225 349.5 91) translate(256 76)"><path d="M55 27h108.004c1.655 0 2.996-1.339 2.996-2.993v-.76c-3.044-2.379-5-6.085-5-10.248 0-4.159 1.953-7.861 4.991-10.241-.12-1.544-1.417-2.759-2.987-2.759h-114.008l-.354.021c-5.309.055-15.191.254-16.643.979-2 1-2 3 0 4s7 2 10 3c1.73.577 3.127 1.485 4 2.535v7.51c-.442.579-1.08.955-2 .955-3 0-28 3-28 3s-9 1-12 2-7 6 0 6 41-3 51-3z" fill="#000" sketch:type="MSShapeGroup"/><path d="M20.03 27.78l21.264-1.86c1.026-.09 1.785-.984 1.695-2.013-.089-1.022-.993-1.777-2.019-1.688l-21.264 1.86c-1.026.09-1.785.984-1.695 2.013.089 1.022.993 1.777 2.019 1.688z" id="Rectangle-2" fill="#fff" sketch:type="MSShapeGroup"/><rect fill="#fff" sketch:type="MSShapeGroup" x="50" y="4" width="105" height="19" rx="3"/><path fill="#000" sketch:type="MSShapeGroup" d="M56 4h1v19h-1zM63 4h1v19h-1zM70 4h1v19h-1zM77 4h1v19h-1zM84 4h1v19h-1zM91 4h1v19h-1zM98 4h1v19h-1zM105 4h1v19h-1zM112 4h1v19h-1zM119 4h1v19h-1zM126 4h1v19h-1zM133 4h1v19h-1zM140 4h1v19h-1zM147 4h1v19h-1z"/><rect id="Rectangle-17" fill="#000" sketch:type="MSShapeGroup" x="62" y="4" width="3" height="13" rx="1"/><rect id="Rectangle-17" fill="#000" sketch:type="MSShapeGroup" x="69" y="4" width="3" height="13" rx="1"/><rect id="Rectangle-17" fill="#000" sketch:type="MSShapeGroup" x="83" y="4" width="3" height="13" rx="1"/><rect id="Rectangle-17" fill="#000" sketch:type="MSShapeGroup" x="90" y="4" width="3" height="13" rx="1"/><rect id="Rectangle-17" fill="#000" sketch:type="MSShapeGroup" x="104" y="4" width="3" height="13" rx="1"/><rect id="Rectangle-17" fill="#000" sketch:type="MSShapeGroup" x="111" y="4" width="3" height="13" rx="1"/><rect id="Rectangle-17" fill="#000" sketch:type="MSShapeGroup" x="125" y="4" width="3" height="13" rx="1"/><rect id="Rectangle-17" fill="#000" sketch:type="MSShapeGroup" x="146" y="4" width="3" height="13" rx="1"/><rect fill="#000" sketch:type="MSShapeGroup" x="132" y="4" width="3" height="13" rx="1"/></g><g sketch:type="MSLayerGroup" transform="translate(260 36)"><circle id="Oval-1" fill="#432C23" sketch:type="MSShapeGroup" cx="45" cy="47" r="45"/><circle id="Oval-1" fill="#432C23" sketch:type="MSShapeGroup" cx="76.5" cy="14.5" r="14.5"/><circle fill="#432C23" sketch:type="MSShapeGroup" cx="14.5" cy="14.5" r="14.5"/><ellipse fill="#AA8F87" sketch:type="MSShapeGroup" cx="45" cy="63" rx="28" ry="19"/><path d="M38.412 35.378c.38-.899.588-1.868.588-2.878 0-4.694-4.477-8.5-10-8.5s-10 3.806-10 8.5c0 3.839 2.995 7.084 7.107 8.139-.07-.37-.107-.75-.107-1.139 0-3.59 3.134-6.5 7-6.5 2.181 0 4.129.926 5.412 2.378z" id="Oval-5" fill="#AA8F87" sketch:type="MSShapeGroup"/><path d="M43.978 62.852c-3.025 2.541-7.494 4.148-12.478 4.148-3.534 0-6.809-.808-9.494-2.184.298 7.31 10.926 13.184 23.994 13.184 13.067 0 23.695-5.874 23.994-13.184-2.685 1.376-5.959 2.184-9.494 2.184-4.984 0-9.453-1.607-12.478-4.148 2.88-.434 4.978-1.77 4.978-3.352 0-1.933-3.134-3.5-7-3.5s-7 1.567-7 3.5c0 1.581 2.098 2.918 4.978 3.352z" fill="#432C23" sketch:type="MSShapeGroup"/><path d="M54.588 36.378c-.38-.899-.588-1.868-.588-2.878 0-4.694 4.477-8.5 10-8.5s10 3.806 10 8.5c0 3.839-2.995 7.084-7.107 8.139.07-.37.107-.75.107-1.139 0-3.59-3.134-6.5-7-6.5-2.181 0-4.129.926-5.412 2.378z" fill="#AA8F87" sketch:type="MSShapeGroup"/></g><path d="M76.685 108l12.48-46.41h-10.01l-7.605 31.98h-.13l-7.93-31.98h-9.555l-8.06 31.59h-.13l-7.345-31.59h-10.205l12.285 46.41h10.335l7.735-31.59h.13l7.865 31.59h10.14zm17.16-46.41v46.41h35.23v-8.58h-25.025v-11.375h22.49v-7.93h-22.49v-9.945h24.505v-8.58h-34.71z" fill="#fff" sketch:type="MSShapeGroup"/></g></svg>